<?xml version="1.0" standalone="no"?>
<!DOCTYPE svg PUBLIC "-//W3C//DTD SVG 1.1//EN" "http://www.w3.org/Graphics/SVG/1.1/DTD/svg11.dtd">
<svg version="1.1" xmlns="http://www.w3.org/2000/svg" viewBox="0 0 1904.4283798070128 1331.3511675805848" width="3808.8567596140256" height="2662.7023351611697"><!-- svg-source:excalidraw --><metadata></metadata><defs><style class="style-fonts">
      </style></defs><rect x="0" y="0" width="1904.4283798070128" height="1331.3511675805848" fill="#ffffff"></rect><g stroke-linecap="round" transform="translate(788.4717072235611 10) rotate(0 186.43486605931997 70.47883227756233)"><path d="M32 0 C107.24 2.29, 182.28 3, 340.87 0 M32 0 C96.35 -0.07, 161.5 0.66, 340.87 0 M340.87 0 C361.86 1.42, 374.69 9.02, 372.87 32 M340.87 0 C363.7 2.1, 372.04 11.11, 372.87 32 M372.87 32 C371.23 63.05, 373.02 90.99, 372.87 108.96 M372.87 32 C371.57 59.52, 371.98 86.96, 372.87 108.96 M372.87 108.96 C374.55 131.36, 363.74 140.86, 340.87 140.96 M372.87 108.96 C371.63 130.03, 361.89 140.99, 340.87 140.96 M340.87 140.96 C244.65 142.11, 151.06 140.8, 32 140.96 M340.87 140.96 C278.74 138.74, 216.1 138.9, 32 140.96 M32 140.96 C11.56 141.28, 0.78 131.96, 0 108.96 M32 140.96 C9.79 142.73, 0.76 131.83, 0 108.96 M0 108.96 C0.68 89.77, -1.49 70.62, 0 32 M0 108.96 C1.4 86.07, 1.06 64.3, 0 32 M0 32 C-0.83 8.77, 10.79 1.13, 32 0 M0 32 C-0.65 11.01, 10.48 0.21, 32 0" stroke="#1e1e1e" stroke-width="2" fill="none"></path></g><g transform="translate(788.2258710226675 10) rotate(0 186.43486605931997 70.47883227756233)"><text x="186.43486605931997" y="76.11083227756234" font-family="Segoe UI Emoji" font-size="22px" fill="#1e1e1e" text-anchor="middle" style="white-space: pre;" direction="ltr" dominant-baseline="alphabetic">Commit to main</text></g><g stroke-linecap="round" transform="translate(563.470912943148 345.1043499669621) rotate(0 186.43486605931997 70.47883227756233)"><path d="M32 0 C108.62 1.98, 182.58 2.64, 340.87 0 M32 0 C95.89 -1.24, 160.52 -0.65, 340.87 0 M340.87 0 C364.13 -1.66, 374.58 11.76, 372.87 32 M340.87 0 C360.57 -1.57, 371.95 9.46, 372.87 32 M372.87 32 C372.77 56.27, 374.78 86.35, 372.87 108.96 M372.87 32 C372.07 56.23, 371.42 80.52, 372.87 108.96 M372.87 108.96 C374.09 131.5, 364.15 140.84, 340.87 140.96 M372.87 108.96 C372.91 131.71, 363.47 139.21, 340.87 140.96 M340.87 140.96 C255.68 138.76, 170.6 138.92, 32 140.96 M340.87 140.96 C222.39 142.72, 103.86 142.55, 32 140.96 M32 140.96 C10.88 140.54, -0.79 128.72, 0 108.96 M32 140.96 C8.85 140.97, 0.52 132.26, 0 108.96 M0 108.96 C1.72 83.4, 1.68 57.33, 0 32 M0 108.96 C0.33 84.63, -0.19 58.64, 0 32 M0 32 C-1.24 12.41, 11.64 -1.66, 32 0 M0 32 C1.71 10.9, 10.65 2.06, 32 0" stroke="#1e1e1e" stroke-width="2" fill="none"></path></g><g transform="translate(563.470912943148 345.1043499669621) rotate(0 186.43486605931997 70.47883227756233)"><text x="186.43486605931997" y="76.11083227756234" font-family="Segoe UI Emoji" font-size="22px" fill="#1e1e1e" text-anchor="middle" style="white-space: pre;" direction="ltr" dominant-baseline="alphabetic">ci-cd-release-please</text></g><g stroke-linecap="round" transform="translate(1014.6919104780161 344.6880060744578) rotate(0 186.43486605931992 70.47883227756233)"><path d="M32 0 C107.12 1.67, 182.87 2.28, 340.87 0 M32 0 C96.86 -0.98, 160.98 -1.95, 340.87 0 M340.87 0 C362.4 -0.74, 374.47 10.5, 372.87 32 M340.87 0 C362.04 -0.64, 371.87 12.41, 372.87 32 M372.87 32 C374.31 53.5, 372.54 77.72, 372.87 108.96 M372.87 32 C372.57 52.95, 372.87 72.07, 372.87 108.96 M372.87 108.96 C373.63 131.65, 360.55 140.82, 340.87 140.96 M372.87 108.96 C374.19 128.79, 360.45 142.02, 340.87 140.96 M340.87 140.96 C266.72 142.72, 190.15 141.47, 32 140.96 M340.87 140.96 C227.81 142.27, 115.17 141.76, 32 140.96 M32 140.96 C10.19 139.79, 1.63 129.49, 0 108.96 M32 140.96 C12.51 139.22, 0.28 128.08, 0 108.96 M0 108.96 C1.22 92.41, -0.68 74.82, 0 32 M0 108.96 C0.8 81.19, 0.11 52.98, 0 32 M0 32 C-1.65 12.06, 12.48 -0.44, 32 0 M0 32 C-0.52 10.78, 10.82 -0.7, 32 0" stroke="#1e1e1e" stroke-width="2" fill="none"></path></g><g transform="translate(1014.6919104780161 344.6880060744578) rotate(0 186.43486605931992 70.47883227756233)"><text x="186.43486605931997" y="76.11083227756234" font-family="Segoe UI Emoji" font-size="22px" fill="#1e1e1e" text-anchor="middle" style="white-space: pre;" direction="ltr" dominant-baseline="alphabetic">ci-cd-main</text></g><g stroke-linecap="round" transform="translate(1521.4283798070128 346.6988584914466) rotate(0 186.5 70.47883227756233)"><path d="M7.86 8.16 C7.86 8.16, 7.86 8.16, 7.86 8.16 M7.86 8.16 C7.86 8.16, 7.86 8.16, 7.86 8.16 M1.43 27.75 C7.94 21.56, 10.42 15.16, 24.4 1.33 M1.43 27.75 C9.11 19.47, 15.79 10.09, 24.4 1.33 M0.91 40.54 C15.01 27.41, 25.7 13.27, 36.34 -0.21 M0.91 40.54 C10.76 27.69, 22.21 16.44, 36.34 -0.21 M1.04 52.58 C17.38 32.17, 33.98 15.69, 46.97 -0.25 M1.04 52.58 C17.82 33.68, 33.39 16.14, 46.97 -0.25 M1.18 64.62 C19.42 40.86, 39.97 18.7, 57.6 -0.28 M1.18 64.62 C18.55 44.79, 37.88 24.94, 57.6 -0.28 M1.31 76.67 C23.47 51.43, 47.43 23.97, 67.57 0.44 M1.31 76.67 C15.94 58.05, 31.89 41.82, 67.57 0.44 M1.44 88.71 C19.35 67.82, 39.57 44.7, 78.2 0.41 M1.44 88.71 C18.74 70.07, 35.2 51.95, 78.2 0.41 M0.92 101.5 C33.42 62.42, 67.47 24.23, 88.83 0.37 M0.92 101.5 C21.41 78.58, 40.78 55.02, 88.83 0.37 M1.05 113.54 C23.65 90.68, 42.72 63, 99.46 0.34 M1.05 113.54 C33.3 75.16, 67.68 35.51, 99.46 0.34 M3.16 123.32 C28.84 96.76, 52.91 67.09, 110.09 0.3 M3.16 123.32 C34.7 85.63, 67.38 46.87, 110.09 0.3 M7.22 130.83 C46.66 83.13, 87.27 37.72, 120.72 0.27 M7.22 130.83 C35.03 99.93, 61.82 67.83, 120.72 0.27 M12.61 136.83 C38.67 108.67, 58.88 80.38, 131.35 0.23 M12.61 136.83 C60.32 83.29, 105.87 30.69, 131.35 0.23 M20.61 139.82 C50.86 104.05, 81.51 69.28, 141.98 0.2 M20.61 139.82 C46.64 112.15, 70.06 85.03, 141.98 0.2 M29.93 141.29 C72.8 92.66, 113.94 46.86, 152.61 0.16 M29.93 141.29 C65.59 100.84, 101.22 61.99, 152.61 0.16 M40.56 141.26 C67.19 111.23, 94.34 80.39, 163.24 0.13 M40.56 141.26 C78.47 98.31, 117.1 52.89, 163.24 0.13 M51.19 141.23 C84.08 105.07, 114.06 66.53, 173.87 0.09 M51.19 141.23 C96.16 90.53, 140.7 40.3, 173.87 0.09 M61.82 141.19 C91.54 111.4, 119.82 75.98, 184.5 0.06 M61.82 141.19 C111.04 84.35, 160.54 27.2, 184.5 0.06 M72.45 141.16 C113.06 94.98, 149.49 52.68, 195.13 0.03 M72.45 141.16 C102.36 106.45, 135.98 68.54, 195.13 0.03 M83.08 141.12 C108.83 112.52, 134.16 82.35, 205.76 -0.01 M83.08 141.12 C119.85 96.87, 158.13 52.99, 205.76 -0.01 M93.71 141.09 C126.65 105.45, 155.67 72.95, 216.39 -0.04 M93.71 141.09 C119.19 110.1, 143.73 80.34, 216.39 -0.04 M104.34 141.05 C144.01 96.3, 185.05 47.42, 227.02 -0.08 M104.34 141.05 C129.67 111.74, 155.81 81.68, 227.02 -0.08 M114.97 141.02 C148.68 100.15, 183.47 63.77, 237.65 -0.11 M114.97 141.02 C151.57 96.86, 188.49 53.6, 237.65 -0.11 M124.95 141.74 C166.31 95.75, 206.73 48.46, 248.28 -0.15 M124.95 141.74 C162.12 99.93, 200.95 56.78, 248.28 -0.15 M135.58 141.7 C171.24 105.24, 204.32 67.14, 258.91 -0.18 M135.58 141.7 C161.06 110.89, 186.74 81.52, 258.91 -0.18 M146.21 141.67 C191.76 89.89, 239.98 32.73, 269.54 -0.22 M146.21 141.67 C184.63 99.1, 221.15 54.9, 269.54 -0.22 M156.84 141.64 C200.48 90.91, 245.23 42.04, 280.17 -0.25 M156.84 141.64 C189.33 101.25, 222.84 64.12, 280.17 -0.25 M167.47 141.6 C193.75 111.21, 221.38 78.71, 290.8 -0.28 M167.47 141.6 C208.13 91.93, 249.61 45.75, 290.8 -0.28 M178.1 141.57 C212.3 100.35, 243.21 63.52, 300.78 0.44 M178.1 141.57 C226.21 85.17, 274.58 30.11, 300.78 0.44 M188.73 141.53 C213.52 109.77, 240.36 81.47, 311.41 0.4 M188.73 141.53 C224.72 101.63, 259.75 61.6, 311.41 0.4 M199.36 141.5 C234.01 103.78, 265.91 65.13, 322.04 0.37 M199.36 141.5 C244.57 87.64, 289.28 33.78, 322.04 0.37 M209.99 141.46 C249.59 95.29, 289.71 49.9, 332.67 0.33 M209.99 141.46 C238.68 111.31, 266.84 78.81, 332.67 0.33 M220.62 141.43 C247.83 110.42, 271.1 79.62, 342.64 1.05 M220.62 141.43 C267.09 87.3, 312.55 35.77, 342.64 1.05 M231.25 141.39 C267.62 100.07, 307.37 56.3, 352.62 1.77 M231.25 141.39 C277.56 88.62, 322.85 34.67, 352.62 1.77 M241.88 141.36 C269.69 109.93, 296.01 80.99, 359.97 5.51 M241.88 141.36 C267.54 112.87, 292.7 81.25, 359.97 5.51 M252.51 141.32 C290.42 100.36, 327.6 55.4, 366.66 10.01 M252.51 141.32 C293.84 93.25, 334.56 45.47, 366.66 10.01 M263.14 141.29 C291.25 108.35, 321.45 71.46, 370.73 17.52 M263.14 141.29 C297.89 98.68, 333.68 59.3, 370.73 17.52 M273.77 141.26 C306.29 100.92, 341.25 62.07, 372.83 27.29 M273.77 141.26 C309.13 100.56, 344.75 60.42, 372.83 27.29 M284.4 141.22 C304.24 119.55, 321.13 97.56, 372.96 39.34 M284.4 141.22 C318.84 101.4, 352.36 64.29, 372.96 39.34 M295.03 141.19 C319.63 113.37, 345.5 84.2, 372.44 52.13 M295.03 141.19 C319.42 113.86, 344.56 85.64, 372.44 52.13 M305.66 141.15 C321.61 119.77, 340.16 99.78, 372.57 64.17 M305.66 141.15 C320.54 123.82, 336.99 105.6, 372.57 64.17 M316.29 141.12 C331.07 123.48, 345 107.08, 372.71 76.21 M316.29 141.12 C336.23 117.41, 356.68 92.64, 372.71 76.21 M326.92 141.08 C336.15 129.03, 347.87 116.69, 372.84 88.25 M326.92 141.08 C337.02 130.58, 345.74 119.26, 372.84 88.25 M337.55 141.05 C348.01 129.53, 355.54 119.56, 372.97 100.29 M337.55 141.05 C345.85 131.75, 355.07 122.43, 372.97 100.29 M348.83 140.26 C354.82 132.63, 362.13 125.43, 372.45 113.09 M348.83 140.26 C353.39 135.35, 359.37 128.76, 372.45 113.09" stroke="#b2f2bb" stroke-width="1" fill="none"></path><path d="M32 0 C108.53 1.36, 183.23 -0.95, 341 0 M32 0 C96.42 -2.16, 160.06 -1.82, 341 0 M341 0 C360.79 0.18, 374.49 9.24, 373 32 M341 0 C363.64 0.28, 371.91 10.75, 373 32 M373 32 C371.98 50.73, 374.42 69.08, 373 108.96 M373 32 C373.2 49.67, 372.45 65.62, 373 108.96 M373 108.96 C373.29 131.79, 361.09 140.79, 341 140.96 M373 108.96 C371 130.47, 362.16 140.24, 341 140.96 M341 140.96 C274.99 139.37, 212.64 139.59, 32 140.96 M341 140.96 C233.32 141.81, 126.52 142.4, 32 140.96 M32 140.96 C9.51 139.04, 0.06 130.25, 0 108.96 M32 140.96 C11.57 142.06, 0.04 128.5, 0 108.96 M0 108.96 C0.71 86.04, 0.95 61.52, 0 32 M0 108.96 C-0.28 93.14, 0.86 76.1, 0 32 M0 32 C1.94 11.7, 9.33 0.77, 32 0 M0 32 C1.85 10.67, 10.99 1.15, 32 0" stroke="#1e1e1e" stroke-width="2" fill="none"></path></g><g transform="translate(1570.239416937453 343.9079484522706) rotate(0 145.37109375 70.47883227756233)"><text x="145.37109375" y="75.59883227756234" font-family="Segoe UI Emoji" font-size="20px" fill="#1e1e1e" text-anchor="middle" style="white-space: pre;" direction="ltr" dominant-baseline="alphabetic">Deploy to Test (af.at23.altinn.cloud)</text></g><g stroke-linecap="round" transform="translate(565.4568504659409 604.6017539460944) rotate(0 186.5 70.47883227756233)"><path d="M32 0 C107.04 1.05, 183.53 -1.32, 341 0 M32 0 C95.95 1.1, 160.52 1.31, 341 0 M341 0 C363.06 1.1, 374.38 11.98, 373 32 M341 0 C360.51 1.21, 371.83 9.1, 373 32 M373 32 C373.52 63.35, 372.18 91.23, 373 108.96 M373 32 C371.7 59.78, 371.9 89.96, 373 108.96 M373 108.96 C372.83 131.94, 361.5 140.77, 341 140.96 M373 108.96 C372.28 132.15, 363.74 143.05, 341 140.96 M341 140.96 C224.23 140.46, 108.59 142.15, 32 140.96 M341 140.96 C238.75 141.36, 137.83 141.61, 32 140.96 M32 140.96 C8.82 142.3, -1.52 131.01, 0 108.96 M32 140.96 C10.63 140.3, -0.2 128.93, 0 108.96 M0 108.96 C0.21 79.66, -1.41 48.23, 0 32 M0 108.96 C0.19 89.7, 1.15 70.44, 0 32 M0 32 C1.53 11.35, 10.18 1.98, 32 0 M0 32 C-0.38 10.56, 11.17 -1.6, 32 0" stroke="#1e1e1e" stroke-width="2" fill="none"></path></g><g transform="translate(586.3176903096909 612.432735310268) rotate(0 166.88671875 62.647850913388766)"><text x="166.88671875" y="66.74385091338874" font-family="Segoe UI Emoji" font-size="16px" fill="#1e1e1e" text-anchor="middle" style="white-space: pre;" direction="ltr" dominant-baseline="alphabetic">Release created / docker-image built and published?</text></g><g stroke-linecap="round" transform="translate(10 600.1902803616878) rotate(0 186.5 70.47883227756233)"><path d="M32 0 C108.42 -2.14, 183.82 -1.68, 341 0 M32 0 C95.49 1.36, 159.54 1.44, 341 0 M341 0 C361.33 -1.98, 374.27 10.72, 373 32 M341 0 C361.98 2.14, 371.74 12.05, 373 32 M373 32 C371.05 56.57, 373.94 86.6, 373 108.96 M373 32 C373.75 56.5, 372.89 81.51, 373 108.96 M373 108.96 C372.36 132.08, 361.9 140.75, 341 140.96 M373 108.96 C373.55 129.24, 360.73 141.27, 341 140.96 M341 140.96 C235.27 139.99, 128.15 140.26, 32 140.96 M341 140.96 C244.17 140.9, 149.15 140.82, 32 140.96 M32 140.96 C12.14 141.55, 0.91 131.78, 0 108.96 M32 140.96 C9.7 143.14, -0.45 129.35, 0 108.96 M0 108.96 C1.25 88.68, 1.76 69.72, 0 32 M0 108.96 C-0.88 86.26, -0.1 64.77, 0 32 M0 32 C1.12 10.99, 11.03 -0.81, 32 0 M0 32 C1.99 10.45, 11.34 0.25, 32 0" stroke="#1e1e1e" stroke-width="2" fill="none"></path></g><g transform="translate(29.444621599342668 608.0212617258613) rotate(0 166.88671875 62.647850913388766)"><text x="166.88671875" y="66.74385091338874" font-family="Segoe UI Emoji" font-size="16px" fill="#1e1e1e" text-anchor="middle" style="white-space: pre;" direction="ltr" dominant-baseline="alphabetic">Release created / docker-image built and published?</text></g><g stroke-linecap="round" transform="translate(158.6524863853972 939.4131105650362) rotate(0 186.5 70.47883227756233)"><path d="M32 0 C109.8 -2.45, 184.12 -2.04, 341 0 M32 0 C95.02 0.19, 158.57 0.13, 341 0 M341 0 C363.59 -1.06, 374.16 9.46, 373 32 M341 0 C363.45 -1.54, 371.65 10.4, 373 32 M373 32 C372.59 53.8, 371.7 77.96, 373 108.96 M373 32 C374.25 53.21, 374.34 75.06, 373 108.96 M373 108.96 C371.9 132.23, 362.31 140.72, 341 140.96 M373 108.96 C374.83 130.92, 362.31 139.49, 341 140.96 M341 140.96 C243.43 141.08, 147.7 139.95, 32 140.96 M341 140.96 C251.03 140.44, 159.02 141.47, 32 140.96 M32 140.96 C11.45 140.81, -0.67 128.54, 0 108.96 M32 140.96 C8.76 141.38, -0.69 129.78, 0 108.96 M0 108.96 C0.75 82.3, -0.6 56.42, 0 32 M0 108.96 C1.58 82.82, 0.2 57.11, 0 32 M0 32 C0.71 10.64, 11.88 0.41, 32 0 M0 32 C-0.25 10.33, 11.51 2.09, 32 0" stroke="#1e1e1e" stroke-width="2" fill="none"></path></g><g transform="translate(158.39871998447484 939.1593441641136) rotate(0 186.5 70.47883227756233)"><text x="186.5" y="76.11083227756234" font-family="Segoe UI Emoji" font-size="22px" fill="#1e1e1e" text-anchor="middle" style="white-space: pre;" direction="ltr" dominant-baseline="alphabetic">Dry-run of prod</text></g><g stroke-linecap="round" transform="translate(572.5150847148604 935.4622727765917) rotate(0 186.5 70.47883227756233)"><path d="M7.86 8.16 C7.86 8.16, 7.86 8.16, 7.86 8.16 M7.86 8.16 C7.86 8.16, 7.86 8.16, 7.86 8.16 M1.43 27.75 C5.62 19.74, 14.93 13.28, 24.4 1.33 M1.43 27.75 C7.7 19.89, 15.62 12.01, 24.4 1.33 M0.91 40.54 C8.96 30.78, 14.93 21.92, 36.34 -0.21 M0.91 40.54 C10.56 29.32, 20.07 17.99, 36.34 -0.21 M1.04 52.58 C12.45 39.26, 25.38 26.37, 46.97 -0.25 M1.04 52.58 C13.22 36.83, 28.22 21.96, 46.97 -0.25 M1.18 64.62 C18.87 44.41, 33.94 25.82, 57.6 -0.28 M1.18 64.62 C19.24 44.63, 36.94 24.28, 57.6 -0.28 M1.31 76.67 C21.97 51.49, 44.76 29.01, 67.57 0.44 M1.31 76.67 C20.83 54.66, 39.37 31.34, 67.57 0.44 M1.44 88.71 C22.24 64.36, 39.51 45.73, 78.2 0.41 M1.44 88.71 C18.05 70.62, 33.37 52.06, 78.2 0.41 M0.92 101.5 C28.17 68.57, 54.96 38.76, 88.83 0.37 M0.92 101.5 C31.71 66.88, 62.8 32.23, 88.83 0.37 M1.05 113.54 C41.14 72.51, 75.49 26.63, 99.46 0.34 M1.05 113.54 C35.57 74.6, 68.19 35.94, 99.46 0.34 M3.16 123.32 C46.5 74.06, 89.61 27.07, 110.09 0.3 M3.16 123.32 C37.69 82.78, 73 42.62, 110.09 0.3 M7.22 130.83 C49.36 81.75, 91 34.69, 120.72 0.27 M7.22 130.83 C42.42 91.45, 77.25 53.05, 120.72 0.27 M12.61 136.83 C39.31 104.73, 64.96 75.56, 131.35 0.23 M12.61 136.83 C45.49 96.53, 81.18 58.14, 131.35 0.23 M20.61 139.82 C66.44 88.72, 112.72 37.6, 141.98 0.2 M20.61 139.82 C62.39 90.04, 106.61 41.94, 141.98 0.2 M29.93 141.29 C68.03 96.48, 108.84 52.86, 152.61 0.16 M29.93 141.29 C68.69 97.45, 107.37 51.87, 152.61 0.16 M40.56 141.26 C82 90.23, 126.03 41.66, 163.24 0.13 M40.56 141.26 C87.3 87.58, 131.81 36.08, 163.24 0.13 M51.19 141.23 C79.68 109.23, 109.6 73.27, 173.87 0.09 M51.19 141.23 C80.56 105.61, 109.96 71.45, 173.87 0.09 M61.82 141.19 C100.71 97.01, 139.01 53.82, 184.5 0.06 M61.82 141.19 C102.4 93.58, 145.35 45.93, 184.5 0.06 M72.45 141.16 C105.81 101.44, 143.54 57.18, 195.13 0.03 M72.45 141.16 C115.86 92.12, 158.68 43.44, 195.13 0.03 M83.08 141.12 C114.58 107.26, 143.81 72.45, 205.76 -0.01 M83.08 141.12 C110.1 110.21, 135.23 80.34, 205.76 -0.01 M93.71 141.09 C142.53 86.02, 189.83 32.21, 216.39 -0.04 M93.71 141.09 C128.35 101.5, 162.69 63.61, 216.39 -0.04 M104.34 141.05 C130.5 109.11, 161.37 74.57, 227.02 -0.08 M104.34 141.05 C139.44 101.59, 173.78 63.1, 227.02 -0.08 M114.97 141.02 C161.39 87.42, 207.04 34.85, 237.65 -0.11 M114.97 141.02 C149.94 98.85, 188.37 57.29, 237.65 -0.11 M124.95 141.74 C164.17 98.49, 199.75 55.1, 248.28 -0.15 M124.95 141.74 C172.59 86.94, 220.91 31.91, 248.28 -0.15 M135.58 141.7 C178.24 95.87, 219.08 46.15, 258.91 -0.18 M135.58 141.7 C165.7 104.69, 197.5 69.28, 258.91 -0.18 M146.21 141.67 C170.75 113.16, 199.13 84.19, 269.54 -0.22 M146.21 141.67 C185.23 95.52, 226.29 50.33, 269.54 -0.22 M156.84 141.64 C189.62 103.65, 221.83 67.39, 280.17 -0.25 M156.84 141.64 C182.81 110.95, 209.43 79.79, 280.17 -0.25 M167.47 141.6 C192.27 110.79, 219.12 80.6, 290.8 -0.28 M167.47 141.6 C194.73 108.08, 222.52 76.67, 290.8 -0.28 M178.1 141.57 C225.85 89.87, 270.36 36.99, 300.78 0.44 M178.1 141.57 C203.1 111.7, 229.79 80.5, 300.78 0.44 M188.73 141.53 C226.71 96.27, 268 47.64, 311.41 0.4 M188.73 141.53 C237.36 87.26, 284.28 32.19, 311.41 0.4 M199.36 141.5 C225.51 109.82, 254.55 79.39, 322.04 0.37 M199.36 141.5 C238.67 98.87, 276.08 54.36, 322.04 0.37 M209.99 141.46 C246.42 102.96, 278.54 62.97, 332.67 0.33 M209.99 141.46 C239.97 104.9, 270.33 68.57, 332.67 0.33 M220.62 141.43 C246.13 112.73, 273.01 84.03, 342.64 1.05 M220.62 141.43 C261.86 91.31, 304.07 44, 342.64 1.05 M231.25 141.39 C268.4 95.58, 310.79 52.4, 352.62 1.77 M231.25 141.39 C278.24 88.32, 325.61 33.53, 352.62 1.77 M241.88 141.36 C268.47 113.03, 294.28 83.68, 359.97 5.51 M241.88 141.36 C288.18 90.56, 333.94 36.98, 359.97 5.51 M252.51 141.32 C280.48 111.75, 308.39 77.65, 366.66 10.01 M252.51 141.32 C290.92 96.16, 331.93 48.85, 366.66 10.01 M263.14 141.29 C306.22 95.71, 345.89 47.74, 370.73 17.52 M263.14 141.29 C289.32 111.73, 316.65 80.2, 370.73 17.52 M273.77 141.26 C307.26 104.48, 341.17 65.98, 372.83 27.29 M273.77 141.26 C312.96 96.61, 352.04 50.37, 372.83 27.29 M284.4 141.22 C315.23 101.52, 349.65 65.27, 372.96 39.34 M284.4 141.22 C304.09 120.35, 321.08 100.18, 372.96 39.34 M295.03 141.19 C316.59 118.96, 336.07 97.05, 372.44 52.13 M295.03 141.19 C325.58 106.21, 355.42 72.57, 372.44 52.13 M305.66 141.15 C322.48 119.92, 340.81 103.11, 372.57 64.17 M305.66 141.15 C323.96 120.99, 342.55 99.74, 372.57 64.17 M316.29 141.12 C335.13 120.94, 354.92 96.91, 372.71 76.21 M316.29 141.12 C331.79 123.01, 346.09 105.77, 372.71 76.21 M326.92 141.08 C337.81 125.73, 350.05 112.93, 372.84 88.25 M326.92 141.08 C340.77 124.96, 355.38 107.44, 372.84 88.25 M337.55 141.05 C347.76 130.28, 358.28 117.09, 372.97 100.29 M337.55 141.05 C352.48 124.29, 366.49 108.75, 372.97 100.29 M348.83 140.26 C352.61 135.24, 361.74 128.09, 372.45 113.09 M348.83 140.26 C357.07 131.19, 365.77 120.28, 372.45 113.09" stroke="#b2f2bb" stroke-width="1" fill="none"></path><path d="M32 0 C108.3 -2.76, 184.42 -2.4, 341 0 M32 0 C95.99 -0.99, 159.02 0.26, 341 0 M341 0 C361.86 -0.14, 374.05 12.2, 373 32 M341 0 C360.32 -0.61, 371.57 8.74, 373 32 M373 32 C375.67 51.02, 375 69.33, 373 108.96 M373 32 C372.75 49.93, 373.79 66.62, 373 108.96 M373 108.96 C371.43 128.37, 362.71 140.7, 341 140.96 M373 108.96 C371.51 128, 363.89 142.3, 341 140.96 M341 140.96 C254.47 142.17, 170.13 142.5, 32 140.96 M341 140.96 C256.46 139.99, 170.34 140.67, 32 140.96 M32 140.96 C10.77 140.06, 1.76 129.3, 0 108.96 M32 140.96 C12.42 139.62, -0.93 130.2, 0 108.96 M0 108.96 C0.25 91.32, 1.03 73.91, 0 32 M0 108.96 C0.51 79.38, -1.05 51.45, 0 32 M0 32 C0.31 10.28, 8.72 1.62, 32 0 M0 32 C2.12 10.22, 11.68 -0.66, 32 0" stroke="#1e1e1e" stroke-width="2" fill="none"></path></g><g transform="translate(626.5449393463805 939.4791639699278) rotate(0 134.2265625 70.47883227756233)"><text x="134.2265625" y="75.08683227756234" font-family="Segoe UI Emoji" font-size="18px" fill="#1e1e1e" text-anchor="middle" style="white-space: pre;" direction="ltr" dominant-baseline="alphabetic">Deploy staging tt02(af.tt02.altinn.no)</text></g><g stroke-linecap="round" transform="translate(955.5150847148604 935.4622727765917) rotate(0 186.5 70.47883227756233)"><path d="M7.86 8.16 C7.86 8.16, 7.86 8.16, 7.86 8.16 M7.86 8.16 C7.86 8.16, 7.86 8.16, 7.86 8.16 M1.43 27.75 C9.46 17.73, 17.62 8.94, 24.4 1.33 M1.43 27.75 C6.07 20.82, 11.15 15.13, 24.4 1.33 M0.91 40.54 C14.37 28.51, 25.48 14.85, 36.34 -0.21 M0.91 40.54 C12.87 26.51, 23.67 14.12, 36.34 -0.21 M1.04 52.58 C16.28 36.21, 30.89 17.93, 46.97 -0.25 M1.04 52.58 C11.54 39.26, 21.1 28.69, 46.97 -0.25 M1.18 64.62 C25.38 40.53, 44.72 12.34, 57.6 -0.28 M1.18 64.62 C19.44 45.6, 35.73 25.11, 57.6 -0.28 M1.31 76.67 C25.9 48.03, 48.71 20.99, 67.57 0.44 M1.31 76.67 C22.43 52.14, 42.62 29.05, 67.57 0.44 M1.44 88.71 C22.64 65.88, 42.17 42.37, 78.2 0.41 M1.44 88.71 C28.01 57.28, 56.56 26.37, 78.2 0.41 M0.92 101.5 C24.85 74.99, 49.82 46.28, 88.83 0.37 M0.92 101.5 C23.98 74.01, 48.7 46.2, 88.83 0.37 M1.05 113.54 C37.46 72.63, 72.71 29.85, 99.46 0.34 M1.05 113.54 C39.49 67.31, 78.09 22.23, 99.46 0.34 M3.16 123.32 C30.37 94.99, 53.86 65.28, 110.09 0.3 M3.16 123.32 C33.82 88.14, 64.45 53.79, 110.09 0.3 M7.22 130.83 C44.01 88.36, 82.24 45.42, 120.72 0.27 M7.22 130.83 C43.31 89.33, 79.15 48.85, 120.72 0.27 M12.61 136.83 C57.96 84.45, 104.79 32.56, 131.35 0.23 M12.61 136.83 C37.22 107.68, 63.49 78.17, 131.35 0.23 M20.61 139.82 C56.1 97.64, 93.15 55.39, 141.98 0.2 M20.61 139.82 C50.02 106.24, 81.24 71.84, 141.98 0.2 M29.93 141.29 C66.73 96.21, 105.44 53.14, 152.61 0.16 M29.93 141.29 C68.55 94.99, 109 49.73, 152.61 0.16 M40.56 141.26 C77.55 99.1, 110.54 59.2, 163.24 0.13 M40.56 141.26 C69.9 106.84, 97.98 72.49, 163.24 0.13 M51.19 141.23 C78.88 107.43, 106.77 73.11, 173.87 0.09 M51.19 141.23 C96.88 90.67, 141.4 39.35, 173.87 0.09 M61.82 141.19 C87.74 108.13, 116.27 75.12, 184.5 0.06 M61.82 141.19 C90.09 110, 118.13 78.84, 184.5 0.06 M72.45 141.16 C98.86 106.11, 130.78 74.42, 195.13 0.03 M72.45 141.16 C104.35 102.54, 138.2 63.78, 195.13 0.03 M83.08 141.12 C114.72 105.17, 144.93 68.2, 205.76 -0.01 M83.08 141.12 C113.21 106.99, 143.18 73.57, 205.76 -0.01 M93.71 141.09 C140.08 85.38, 185.81 31.3, 216.39 -0.04 M93.71 141.09 C129.72 99.62, 166.02 57.2, 216.39 -0.04 M104.34 141.05 C142.39 100.04, 178.99 55.97, 227.02 -0.08 M104.34 141.05 C151.04 86.06, 200.19 31.34, 227.02 -0.08 M114.97 141.02 C141.73 112.46, 167.56 84.07, 237.65 -0.11 M114.97 141.02 C145.6 104.45, 176.77 69.38, 237.65 -0.11 M124.95 141.74 C158.18 104.27, 189.38 69.94, 248.28 -0.15 M124.95 141.74 C162.17 95.76, 200.52 51.96, 248.28 -0.15 M135.58 141.7 C167.78 105.1, 198.24 67.66, 258.91 -0.18 M135.58 141.7 C167.99 105.49, 201.31 67.07, 258.91 -0.18 M146.21 141.67 C175.37 113.11, 197.97 84.1, 269.54 -0.22 M146.21 141.67 C180.21 105.07, 214.24 66.23, 269.54 -0.22 M156.84 141.64 C198.11 96.64, 240.52 45.36, 280.17 -0.25 M156.84 141.64 C188.35 106.39, 219.41 70.64, 280.17 -0.25 M167.47 141.6 C194.61 110.68, 223.26 77.07, 290.8 -0.28 M167.47 141.6 C205.63 98.54, 242.84 56.64, 290.8 -0.28 M178.1 141.57 C209.84 109.03, 241.35 70.31, 300.78 0.44 M178.1 141.57 C202.26 111.62, 228.16 82.32, 300.78 0.44 M188.73 141.53 C234.84 92.9, 278.73 42.18, 311.41 0.4 M188.73 141.53 C220.7 105.46, 253.2 67.79, 311.41 0.4 M199.36 141.5 C230.52 104.28, 262.98 65.84, 322.04 0.37 M199.36 141.5 C242.62 92.9, 283.35 44.67, 322.04 0.37 M209.99 141.46 C235.78 109.32, 266.77 78.74, 332.67 0.33 M209.99 141.46 C254.47 89.18, 299.15 37.78, 332.67 0.33 M220.62 141.43 C252.8 105.85, 281.7 67.66, 342.64 1.05 M220.62 141.43 C262.46 93.53, 303.36 46.77, 342.64 1.05 M231.25 141.39 C266.22 102.23, 297.2 61.18, 352.62 1.77 M231.25 141.39 C260.81 106.97, 289.49 72.92, 352.62 1.77 M241.88 141.36 C282.88 92.83, 326.27 43, 359.97 5.51 M241.88 141.36 C275.45 103.68, 308.64 65.99, 359.97 5.51 M252.51 141.32 C282.01 103.88, 313.32 67.94, 366.66 10.01 M252.51 141.32 C287.3 101.31, 320.17 61.69, 366.66 10.01 M263.14 141.29 C298.82 103.4, 332.1 67.02, 370.73 17.52 M263.14 141.29 C298.31 101, 334.3 60.06, 370.73 17.52 M273.77 141.26 C295.17 116.75, 317.91 87.75, 372.83 27.29 M273.77 141.26 C308.89 99.32, 345.38 58.77, 372.83 27.29 M284.4 141.22 C310.14 108.08, 341.09 79.46, 372.96 39.34 M284.4 141.22 C308.75 114.07, 331.98 86.95, 372.96 39.34 M295.03 141.19 C318.36 113.74, 340.12 92.2, 372.44 52.13 M295.03 141.19 C309.69 122, 325.73 104.81, 372.44 52.13 M305.66 141.15 C328.77 113.92, 352.73 85.21, 372.57 64.17 M305.66 141.15 C328.93 115.43, 349.89 88.58, 372.57 64.17 M316.29 141.12 C339.32 115.9, 361.4 90.72, 372.71 76.21 M316.29 141.12 C328.54 125.62, 342.29 109.27, 372.71 76.21 M326.92 141.08 C341.25 123.35, 355.92 106.79, 372.84 88.25 M326.92 141.08 C336.85 129.79, 345.55 119.15, 372.84 88.25 M337.55 141.05 C348.49 129.11, 357.76 119.12, 372.97 100.29 M337.55 141.05 C344.94 132.4, 353.56 121.96, 372.97 100.29 M348.83 140.26 C354.24 133.77, 362.01 125.27, 372.45 113.09 M348.83 140.26 C357.76 129, 367.14 119.02, 372.45 113.09" stroke="#b2f2bb" stroke-width="1" fill="none"></path><path d="M32 0 C109.68 1.37, 184.71 1.68, 341 0 M32 0 C95.52 -0.73, 158.05 -1.04, 341 0 M341 0 C364.13 0.78, 373.94 10.94, 373 32 M341 0 C361.79 0.31, 371.48 11.69, 373 32 M373 32 C373.21 63.64, 372.75 91.48, 373 108.96 M373 32 C373.25 62.04, 373.24 90.95, 373 108.96 M373 108.96 C374.97 128.52, 363.12 140.67, 341 140.96 M373 108.96 C372.79 129.68, 360.87 140.52, 341 140.96 M341 140.96 C265.51 141.69, 189.68 140.62, 32 140.96 M341 140.96 C261.88 139.53, 181.65 139.88, 32 140.96 M32 140.96 C10.08 139.31, 0.18 130.07, 0 108.96 M32 140.96 C11.48 142.46, -1.17 130.62, 0 108.96 M0 108.96 C1.28 84.94, 0.21 60.61, 0 32 M0 108.96 C0.97 91.33, 1.24 74.57, 0 32 M0 32 C-0.1 9.93, 9.57 -1.17, 32 0 M0 32 C-0.11 10.11, 11.85 1.19, 32 0" stroke="#1e1e1e" stroke-width="2" fill="none"></path></g><g transform="translate(1013.6772170012846 938.0296215464797) rotate(0 136.22607421875 70.47883227756233)"><text x="136.22607421875" y="75.08683227756234" font-family="Segoe UI Emoji" font-size="18px" fill="#1e1e1e" text-anchor="middle" style="white-space: pre;" direction="ltr" dominant-baseline="alphabetic">Deploy staging tt02(af.yt01.altinn.no)</text></g><g stroke-linecap="round" transform="translate(574.876207293356 1179.0644786159182) rotate(0 186.5 71.14334448233342)"><path d="M7.86 8.16 C7.86 8.16, 7.86 8.16, 7.86 8.16 M7.86 8.16 C7.86 8.16, 7.86 8.16, 7.86 8.16 M1.43 27.75 C8.76 16.19, 19.78 9.06, 24.4 1.33 M1.43 27.75 C9.03 18.01, 17.86 7.23, 24.4 1.33 M0.91 40.54 C7.88 30.39, 17.04 20.09, 36.34 -0.21 M0.91 40.54 C14 26.41, 26.09 10.96, 36.34 -0.21 M1.04 52.58 C11.99 43.72, 19.08 30.62, 46.97 -0.25 M1.04 52.58 C17.04 34.04, 34.35 15.21, 46.97 -0.25 M1.18 64.62 C15.3 45.62, 31.63 28.82, 57.6 -0.28 M1.18 64.62 C18.93 44.56, 35.82 23.95, 57.6 -0.28 M1.31 76.67 C12.59 61.14, 26.17 44.78, 67.57 0.44 M1.31 76.67 C24.03 51.63, 45.87 26.77, 67.57 0.44 M1.44 88.71 C20.81 67.39, 42.59 43.02, 78.2 0.41 M1.44 88.71 C24.61 61.61, 47.05 35.99, 78.2 0.41 M0.92 101.5 C21.53 77.41, 44.68 49.79, 88.83 0.37 M0.92 101.5 C18.27 79.38, 36.63 60.41, 88.83 0.37 M1.05 113.54 C33.79 72.74, 69.93 33.08, 99.46 0.34 M1.05 113.54 C25.99 84.66, 50.89 55.81, 99.46 0.34 M2.5 124.07 C32.69 87.86, 62.13 54.61, 110.09 0.3 M2.5 124.07 C26.98 94.08, 53.08 63.34, 110.09 0.3 M6.57 131.59 C35.57 97.81, 66.55 62.78, 120.72 0.27 M6.57 131.59 C44.37 87.72, 83.44 44.91, 120.72 0.27 M11.95 137.59 C49.69 89.6, 90.16 46.07, 131.35 0.23 M11.95 137.59 C54.26 89.99, 95.1 43.79, 131.35 0.23 M19.96 140.57 C48.05 107.13, 80.03 73.57, 141.98 0.2 M19.96 140.57 C58.68 95.45, 99.39 48.57, 141.98 0.2 M29.27 142.05 C67.79 98.91, 104.62 56.16, 152.61 0.16 M29.27 142.05 C70.8 93.03, 111.23 45.84, 152.61 0.16 M39.25 142.77 C65.26 109.13, 95.49 77.58, 163.24 0.13 M39.25 142.77 C78.96 99.37, 117.55 55.48, 163.24 0.13 M49.88 142.73 C79.9 109.24, 110.09 76.21, 173.87 0.09 M49.88 142.73 C84.91 102.59, 120.39 63.92, 173.87 0.09 M60.51 142.7 C105.28 92.01, 149.06 40.41, 184.5 0.06 M60.51 142.7 C98.58 96.77, 136.66 53.4, 184.5 0.06 M71.14 142.67 C118.47 87.49, 165.62 35.56, 195.13 0.03 M71.14 142.67 C121.41 85.63, 169.35 29.97, 195.13 0.03 M81.77 142.63 C117.91 105.72, 149.45 66.19, 205.76 -0.01 M81.77 142.63 C114.54 104.88, 149.71 65.5, 205.76 -0.01 M92.4 142.6 C136.78 92.15, 181.43 37.25, 216.39 -0.04 M92.4 142.6 C130.19 99.25, 168.84 53.83, 216.39 -0.04 M103.03 142.56 C149.47 89.45, 196.29 35.28, 227.02 -0.08 M103.03 142.56 C142.01 97.33, 179.84 54.16, 227.02 -0.08 M113.66 142.53 C141.61 110.44, 172.46 77.65, 237.65 -0.11 M113.66 142.53 C163.01 85.17, 211.99 27.76, 237.65 -0.11 M124.29 142.49 C176.46 86.12, 224.22 28.18, 248.28 -0.15 M124.29 142.49 C151.23 109.63, 179.78 76.88, 248.28 -0.15 M134.92 142.46 C178.74 90.42, 227.72 36.61, 258.91 -0.18 M134.92 142.46 C168.97 102.37, 204 62.73, 258.91 -0.18 M144.89 143.18 C172.13 111.77, 197.22 78.38, 269.54 -0.22 M144.89 143.18 C174.18 111.33, 201.49 78.49, 269.54 -0.22 M155.52 143.14 C183.74 112.72, 207.96 82.46, 280.17 -0.25 M155.52 143.14 C192.96 102.92, 228.84 62.13, 280.17 -0.25 M166.15 143.11 C195.94 111.74, 222.69 78.38, 290.8 -0.28 M166.15 143.11 C213.72 87.47, 260.84 34.5, 290.8 -0.28 M176.78 143.08 C217.48 94.52, 256.95 49.24, 300.78 0.44 M176.78 143.08 C203.21 112.26, 230.6 80.55, 300.78 0.44 M187.41 143.04 C235.34 90.46, 282.35 33.08, 311.41 0.4 M187.41 143.04 C227.7 93.96, 270.76 44.96, 311.41 0.4 M198.04 143.01 C234.61 97.31, 274.89 54.42, 322.04 0.37 M198.04 143.01 C245.76 87.85, 292.29 33.33, 322.04 0.37 M208.67 142.97 C255.7 92.41, 302.57 38.45, 332.67 0.33 M208.67 142.97 C241.48 102.78, 276.3 66.14, 332.67 0.33 M219.3 142.94 C258.57 98.46, 293.88 54.3, 342.64 1.05 M219.3 142.94 C259.36 94.31, 299.38 47.6, 342.64 1.05 M229.93 142.9 C259.05 112.46, 286.92 77.2, 352.62 1.77 M229.93 142.9 C267.53 100.76, 304.18 59.06, 352.62 1.77 M240.56 142.87 C276.76 99.22, 314.52 59.62, 359.97 5.51 M240.56 142.87 C285.51 92.96, 328.24 43.43, 359.97 5.51 M251.19 142.83 C286.65 101.06, 321.74 62.8, 366.66 10.01 M251.19 142.83 C278.04 111.89, 307.1 79.59, 366.66 10.01 M261.82 142.8 C287.94 112.24, 311.14 83.11, 370.73 17.52 M261.82 142.8 C285.25 116.38, 308.63 90.46, 370.73 17.52 M272.45 142.77 C303.71 107.27, 335.52 68.46, 372.83 27.29 M272.45 142.77 C306.23 107.05, 338.55 69.69, 372.83 27.29 M283.08 142.73 C308.08 115.79, 327.89 90.4, 372.96 39.34 M283.08 142.73 C312.54 108.58, 342.41 76.02, 372.96 39.34 M293.71 142.7 C317.02 115.11, 341.46 85.46, 372.44 52.13 M293.71 142.7 C310.25 123.14, 328.25 102.26, 372.44 52.13 M304.34 142.66 C320.72 124.44, 341.27 102.85, 372.57 64.17 M304.34 142.66 C319.48 127.81, 331.7 110.45, 372.57 64.17 M314.97 142.63 C328.56 123.83, 345.99 106.08, 372.71 76.21 M314.97 142.63 C327.56 128.56, 341.06 114.77, 372.71 76.21 M325.6 142.59 C343.89 122.8, 361.49 101.9, 372.84 88.25 M325.6 142.59 C338.11 128.05, 352.45 111.3, 372.84 88.25 M336.23 142.56 C349.12 129, 357.52 117.77, 372.97 100.29 M336.23 142.56 C346.36 131.44, 357.03 119.52, 372.97 100.29 M347.52 141.77 C355.77 132.58, 362.83 121.99, 373.11 112.34 M347.52 141.77 C352.9 134.76, 360.71 128.59, 373.11 112.34" stroke="#b2f2bb" stroke-width="1" fill="none"></path><path d="M32 0 C108.19 1.06, 185.01 1.31, 341 0 M32 0 C95.06 -1.9, 158.51 -2.35, 341 0 M341 0 C362.39 1.7, 373.83 9.68, 373 32 M341 0 C363.26 1.24, 371.4 10.04, 373 32 M373 32 C374.75 57.33, 374.52 83.75, 373 110.29 M373 32 C373.76 57.2, 372.7 83.39, 373 110.29 M373 110.29 C374.5 129.99, 363.53 141.98, 341 142.29 M373 110.29 C374.07 132.69, 362.45 140.06, 341 142.29 M341 142.29 C276.55 144.11, 209.23 144.5, 32 142.29 M341 142.29 C267.31 140.41, 192.97 140.42, 32 142.29 M32 142.29 C9.4 143.89, -1.39 132.16, 0 110.29 M32 142.29 C10.55 142.04, -1.41 132.38, 0 110.29 M0 110.29 C0.79 79.38, 1.85 47.61, 0 32 M0 110.29 C-0.1 90.88, -0.01 69.55, 0 32 M0 32 C-0.51 9.57, 10.42 0.04, 32 0 M0 32 C2.26 10, 12.02 -1.57, 32 0" stroke="#1e1e1e" stroke-width="2" fill="none"></path></g><g transform="translate(643.6908555960651 1192.6018859259666) rotate(0 113.15672302246094 64.3560477303455)"><text x="113.15672302246094" y="36.38570805002895" font-family="Segoe UI Emoji" font-size="16.436266347094552px" fill="#1e1e1e" text-anchor="middle" style="white-space: pre;" direction="ltr" dominant-baseline="alphabetic">Manual trigger production deploy </text><text x="113.15672302246094" y="100.74175578037445" font-family="Segoe UI Emoji" font-size="16.436266347094552px" fill="#1e1e1e" text-anchor="middle" style="white-space: pre;" direction="ltr" dominant-baseline="alphabetic">(af.altinn.no)</text></g><g stroke-linecap="round"><g transform="translate(871.9082691859043 161.95766455512467) rotate(0 -69.13520302918664 86.80311890003325)"><path d="M-0.8 -1.12 C-23.99 27.9, -116.37 145.39, -139.25 174.73 M0.98 0.9 C-21.82 29.5, -113.68 144.13, -136.96 172.8" stroke="#1e1e1e" stroke-width="2" fill="none"></path></g><g transform="translate(871.9082691859043 161.95766455512467) rotate(0 -69.13520302918664 86.80311890003325)"><path d="M-128.88 149.14 C-132.98 154.6, -132.85 163.39, -136.96 172.8 M-128.88 149.14 C-132.26 156.94, -134.57 166.34, -136.96 172.8" stroke="#1e1e1e" stroke-width="2" fill="none"></path></g><g transform="translate(871.9082691859043 161.95766455512467) rotate(0 -69.13520302918664 86.80311890003325)"><path d="M-115.56 159.87 C-123.58 162.13, -127.3 167.81, -136.96 172.8 M-115.56 159.87 C-123.53 163.89, -130.47 169.55, -136.96 172.8" stroke="#1e1e1e" stroke-width="2" fill="none"></path></g></g><mask></mask><g stroke-linecap="round"><g transform="translate(1002.7150436258735 161.9576645551247) rotate(0 102.05980954935967 85.77596154034677)"><path d="M0.64 0.59 C34.76 28.91, 170.8 142.34, 204.6 170.7 M-0.48 -0.15 C33.58 28.22, 170.31 143.08, 204.16 171.7" stroke="#1e1e1e" stroke-width="2" fill="none"></path></g><g transform="translate(1002.7150436258735 161.9576645551247) rotate(0 102.05980954935967 85.77596154034677)"><path d="M180.69 163.1 C188.53 167.09, 192.64 167.71, 204.16 171.7 M180.69 163.1 C186.57 164.74, 191.83 167.01, 204.16 171.7" stroke="#1e1e1e" stroke-width="2" fill="none"></path></g><g transform="translate(1002.7150436258735 161.9576645551247) rotate(0 102.05980954935967 85.77596154034677)"><path d="M191.7 150.02 C196.44 157.86, 197.35 162.28, 204.16 171.7 M191.7 150.02 C195.11 154.57, 197.95 159.72, 204.16 171.7" stroke="#1e1e1e" stroke-width="2" fill="none"></path></g></g><mask></mask><g stroke-linecap="round"><g transform="translate(739.0737334505523 483.7012024139942) rotate(0 1.50443335233291 55.106977199671405)"><path d="M-0.32 -0.1 C0.26 18.06, 2.89 91.56, 3.32 109.88 M1.72 -1.19 C2.18 17.08, 2.65 92.69, 2.56 111.41" stroke="#1e1e1e" stroke-width="2" fill="none"></path></g><g transform="translate(739.0737334505523 483.7012024139942) rotate(0 1.50443335233291 55.106977199671405)"><path d="M-6.04 87.93 C-3.51 95.35, -0.9 100.48, 2.56 111.41 M-6.04 87.93 C-3.64 94.74, -1.46 101.19, 2.56 111.41" stroke="#1e1e1e" stroke-width="2" fill="none"></path></g><g transform="translate(739.0737334505523 483.7012024139942) rotate(0 1.50443335233291 55.106977199671405)"><path d="M11.06 87.9 C8.63 95.28, 6.29 100.42, 2.56 111.41 M11.06 87.9 C8.47 94.86, 5.64 101.32, 2.56 111.41" stroke="#1e1e1e" stroke-width="2" fill="none"></path></g></g><mask></mask><g stroke-linecap="round"><g transform="translate(1382.9008421145563 411.43453273208786) rotate(0 63.75872554671821 1.203973191284632)"><path d="M1.13 -0.78 C22.36 -0.45, 106.38 2.56, 127.26 3.19 M0.26 1.42 C21.32 1.95, 104.77 1.65, 126.17 1.58" stroke="#1e1e1e" stroke-width="2" fill="none"></path></g><g transform="translate(1382.9008421145563 411.43453273208786) rotate(0 63.75872554671821 1.203973191284632)"><path d="M102.7 10.2 C108.12 7.03, 117.87 3.06, 126.17 1.58 M102.7 10.2 C110.4 7.42, 120.19 3.09, 126.17 1.58" stroke="#1e1e1e" stroke-width="2" fill="none"></path></g><g transform="translate(1382.9008421145563 411.43453273208786) rotate(0 63.75872554671821 1.203973191284632)"><path d="M102.65 -6.9 C108.25 -5.11, 118.02 -4.12, 126.17 1.58 M102.65 -6.9 C110.35 -3.45, 120.15 -1.55, 126.17 1.58" stroke="#1e1e1e" stroke-width="2" fill="none"></path></g></g><mask></mask><g stroke-linecap="round"><g transform="translate(554.4568504659408 669.1863134551517) rotate(0 -80.58900893730782 3.3822020445138037)"><path d="M0.17 0.93 C-26.7 1.95, -134.7 4.43, -161.35 5.06 M-1.2 0.38 C-27.69 1.65, -132.62 5.51, -159.1 6.39" stroke="#1e1e1e" stroke-width="2" fill="none"></path></g><g transform="translate(554.4568504659408 669.1863134551517) rotate(0 -80.58900893730782 3.3822020445138037)"><path d="M-135.93 -2.99 C-141.17 -1.72, -150.12 3.72, -159.1 6.39 M-135.93 -2.99 C-141.07 -0.31, -147.73 1.93, -159.1 6.39" stroke="#1e1e1e" stroke-width="2" fill="none"></path></g><g transform="translate(554.4568504659408 669.1863134551517) rotate(0 -80.58900893730782 3.3822020445138037)"><path d="M-135.32 14.1 C-140.6 10.41, -149.72 10.9, -159.1 6.39 M-135.32 14.1 C-140.61 12.74, -147.42 10.95, -159.1 6.39" stroke="#1e1e1e" stroke-width="2" fill="none"></path></g></g><mask></mask><g transform="translate(466.96436940184685 646.3139698921942) rotate(0 16 12)"><text x="0" y="16.608" font-family="Segoe UI Emoji" font-size="18px" fill="#1e1e1e" text-anchor="start" style="white-space: pre;" direction="ltr" dominant-baseline="alphabetic">NO</text></g><g stroke-linecap="round"><g transform="translate(745.0797155594433 744.5362218775548) rotate(0 -2.756757363648319 89.27336949490422)"><path d="M0.66 -0.44 C-0.22 29.52, -4.27 148.92, -5.36 179.14 M-0.46 -1.71 C-1.46 28.43, -5.12 150.13, -6.17 180.26" stroke="#1e1e1e" stroke-width="2" fill="none"></path></g><g transform="translate(745.0797155594433 744.5362218775548) rotate(0 -2.756757363648319 89.27336949490422)"><path d="M-13.96 156.51 C-12.55 163.79, -10.88 169.81, -6.17 180.26 M-13.96 156.51 C-10.2 166.47, -7.27 173.97, -6.17 180.26" stroke="#1e1e1e" stroke-width="2" fill="none"></path></g><g transform="translate(745.0797155594433 744.5362218775548) rotate(0 -2.756757363648319 89.27336949490422)"><path d="M3.13 157.06 C-0.41 164.28, -3.7 170.13, -6.17 180.26 M3.13 157.06 C0.39 166.69, -3.18 173.97, -6.17 180.26" stroke="#1e1e1e" stroke-width="2" fill="none"></path></g></g><mask></mask><g stroke-linecap="round"><g transform="translate(745.318891838116 741.2763377830535) rotate(0 -129.24346048424513 86.08729117816591)"><path d="M-0.3 -1.12 C-43.46 27.83, -215.89 144.36, -259.09 173.3 M1.74 0.9 C-41.6 29.5, -217.11 142.52, -260.23 171.29" stroke="#1e1e1e" stroke-width="2" fill="none"></path></g><g transform="translate(745.318891838116 741.2763377830535) rotate(0 -129.24346048424513 86.08729117816591)"><path d="M-245.25 151.28 C-251.53 156.45, -253.64 161.58, -260.23 171.29 M-245.25 151.28 C-249.02 155.39, -253.26 162.13, -260.23 171.29" stroke="#1e1e1e" stroke-width="2" fill="none"></path></g><g transform="translate(745.318891838116 741.2763377830535) rotate(0 -129.24346048424513 86.08729117816591)"><path d="M-235.89 165.59 C-244.84 166.59, -249.66 167.57, -260.23 171.29 M-235.89 165.59 C-242.08 166.08, -248.68 169.21, -260.23 171.29" stroke="#1e1e1e" stroke-width="2" fill="none"></path></g></g><mask></mask><g stroke-linecap="round"><g transform="translate(949.456850465941 689.1244600536123) rotate(0 98.86390443422647 117.47107171275758)"><path d="M1.14 0.59 C33.7 39.65, 162.54 194.99, 195.25 234.17 M0.28 -0.14 C33.22 39.04, 164.63 195.55, 197.44 235.09" stroke="#1e1e1e" stroke-width="2" fill="none"></path></g><g transform="translate(949.456850465941 689.1244600536123) rotate(0 98.86390443422647 117.47107171275758)"><path d="M175.82 222.54 C183.05 224.34, 186.38 231.5, 197.44 235.09 M175.82 222.54 C182.02 225.81, 190.15 230.77, 197.44 235.09" stroke="#1e1e1e" stroke-width="2" fill="none"></path></g><g transform="translate(949.456850465941 689.1244600536123) rotate(0 98.86390443422647 117.47107171275758)"><path d="M188.94 211.58 C192.35 216.68, 191.88 227.02, 197.44 235.09 M188.94 211.58 C190.95 218.46, 194.82 226.98, 197.44 235.09" stroke="#1e1e1e" stroke-width="2" fill="none"></path></g></g><mask></mask><g stroke-linecap="round"><g transform="translate(757.9643694018469 1076.313969892194) rotate(0 -0.25546355465661463 43.30824243451434)"><path d="M0.19 -0.1 C0.32 14.3, 0.61 71.73, 0.66 86.36 M-1.18 -1.19 C-1.12 13.39, -0.07 73.29, 0.14 87.81" stroke="#1e1e1e" stroke-width="2" fill="none"></path></g><g transform="translate(757.9643694018469 1076.313969892194) rotate(0 -0.25546355465661463 43.30824243451434)"><path d="M-8.79 64.45 C-6.36 72.55, -3.89 79.04, 0.14 87.81 M-8.79 64.45 C-4.77 73.3, -2.54 82.68, 0.14 87.81" stroke="#1e1e1e" stroke-width="2" fill="none"></path></g><g transform="translate(757.9643694018469 1076.313969892194) rotate(0 -0.25546355465661463 43.30824243451434)"><path d="M8.31 64.18 C5.78 72.38, 3.3 78.95, 0.14 87.81 M8.31 64.18 C5.55 72.98, 1.01 82.46, 0.14 87.81" stroke="#1e1e1e" stroke-width="2" fill="none"></path></g></g><mask></mask><g stroke-linecap="round"><g transform="translate(1140.9643694018469 1076.313969892194) rotate(0 -93.14860592378147 56.21799292820731)"><path d="M-0.77 -0.78 C-31.83 18.06, -155.51 94.42, -186.47 113.22 M1.03 1.42 C-30.16 19.91, -155.95 92.92, -187.32 111.54" stroke="#1e1e1e" stroke-width="2" fill="none"></path></g><g transform="translate(1140.9643694018469 1076.313969892194) rotate(0 -93.14860592378147 56.21799292820731)"><path d="M-171.38 92.28 C-177.27 98.06, -179.19 103.57, -187.32 111.54 M-171.38 92.28 C-175.98 97.12, -179.99 101.63, -187.32 111.54" stroke="#1e1e1e" stroke-width="2" fill="none"></path></g><g transform="translate(1140.9643694018469 1076.313969892194) rotate(0 -93.14860592378147 56.21799292820731)"><path d="M-162.73 107.03 C-171.16 108.48, -175.58 109.71, -187.32 111.54 M-162.73 107.03 C-169.78 107.89, -176.11 108.44, -187.32 111.54" stroke="#1e1e1e" stroke-width="2" fill="none"></path></g></g><mask></mask></svg>